<?xml version="1.0" standalone="no"?>
<!DOCTYPE svg PUBLIC "-//W3C//DTD SVG 1.1//EN" "http://www.w3.org/Graphics/SVG/1.1/DTD/svg11.dtd" >
<svg xmlns="http://www.w3.org/2000/svg" xmlns:xlink="http://www.w3.org/1999/xlink" version="1.1">
<metadata>
Created by FontForge 20170731 at Sun Apr 24 19:51:41 2005
 By Aleksey,,,
Copyright (c)2002-2005 Jason Walcott/Jukebox. All Rights Reserved.
</metadata>
<defs>
<font id="WesleyPosterJF" horiz-adv-x="522" >
  <font-face 
    font-family="WesleyPosterJF"
    font-weight="300"
    font-stretch="normal"
    units-per-em="1000"
    panose-1="0 0 3 0 0 0 0 0 0 0"
    ascent="800"
    descent="-200"
    x-height="634"
    cap-height="800"
    bbox="-103 -286 1661 1040"
    underline-thickness="20"
    underline-position="-163"
    unicode-range="U+0020-F002"
  />
<missing-glyph horiz-adv-x="500" 
d="M63 0v1040h375v-1040h-375zM125 63h250v915h-250v-915z" />
    <glyph glyph-name=".notdef" horiz-adv-x="500" 
d="M63 0v1040h375v-1040h-375zM125 63h250v915h-250v-915z" />
    <glyph glyph-name=".null" horiz-adv-x="0" 
 />
    <glyph glyph-name="nonmarkingreturn" horiz-adv-x="290" 
 />
    <glyph glyph-name="space" unicode=" " horiz-adv-x="290" 
 />
    <glyph glyph-name="exclam" unicode="!" horiz-adv-x="280" 
d="M194 757l-6 -622h-94l-6 622q0 26 15.5 43.5t36.5 17.5q22 0 38 -16.5t16 -44.5zM196 37q0 -22 -16 -38.5t-38 -16.5t-38 16.5t-16 38.5q0 21 16 37.5t38 16.5t38 -16.5t16 -37.5z" />
    <glyph glyph-name="quotedbl" unicode="&#x22;" horiz-adv-x="231" 
d="M185 777l-25 -180h-12l-22 180q-5 41 30 42q16 0 24 -10.5t5 -31.5zM105 777l-25 -180h-12l-22 180q-6 41 30 42q16 0 24 -10.5t5 -31.5z" />
    <glyph glyph-name="numbersign" unicode="#" horiz-adv-x="702" 
d="M659 547l-13 -33h-150q-12 -40 -38.5 -124t-39.5 -125h171l-13 -33h-168q-11 -37 -36 -116t-37 -116h-85l73 232h-64q-11 -37 -36 -116t-37 -116h-85l73 232h-163l13 33h160q13 41 39.5 125t38.5 124h-181l13 33h179q13 41 40 126t39 126h85l-79 -252h64q13 41 40 126
t39 126h85l-79 -252h152zM411 514h-64q-12 -40 -38.5 -124t-39.5 -125h64q13 41 39.5 125t38.5 124z" />
    <glyph glyph-name="dollar" unicode="$" horiz-adv-x="490" 
d="M448 562h-94v18q0 120 -89 130v-284l89 -60q90 -61 90 -133q0 -62 -51 -107t-128 -53v-73h-40v71q-88 4 -142 50.5t-54 118.5v21h94v-18q0 -55 27.5 -95t74.5 -46v284l-95 63q-83 56 -83 130q0 66 50.5 110.5t127.5 50.5v74h40v-73q84 -4 133.5 -45t49.5 -112v-22z
M225 453v255q-37 -10 -60 -45t-23 -83q0 -71 48 -104zM348 232q0 69 -54 107q-13 10 -29 20v-254q36 10 59.5 44.5t23.5 82.5z" />
    <glyph glyph-name="percent" unicode="%" horiz-adv-x="753" 
d="M691 101q0 -47 -43 -80.5t-105 -33.5t-105 32.5t-43 79.5v269l-203 -363h-82l200 359q-58 -37 -112 -37q-62 0 -105 32.5t-43 79.5v259q0 46 44 80t105 34q62 0 104.5 -32.5t42.5 -79.5v-271l204 365h82l-201 -360q60 38 113 38q62 0 104.5 -32.5t42.5 -79.5v-259z
M607 98v262q0 37 -18 64t-45 27q-28 0 -46.5 -27t-18.5 -64v-262q0 -37 18.5 -63.5t45.5 -26.5t45.5 26.5t18.5 63.5zM262 438v262q0 37 -18 64t-45 27q-28 0 -46.5 -27t-18.5 -64v-262q0 -37 18.5 -63.5t45.5 -26.5t45.5 26.5t18.5 63.5z" />
    <glyph glyph-name="ampersand" unicode="&#x26;" horiz-adv-x="582" 
d="M560 210h-78v-42q0 -75 -65 -130t-154 -55t-153 49q-72 55 -72 148v46q0 120 130 179q-130 62 -130 180v35q0 92 72 147q64 49 153 49t154 -55t65 -129v-40h-93v24q0 75 -39 123q-37 44 -90 44q-51 0 -88 -44q-40 -48 -40 -123v-28q0 -71 45.5 -118t115.5 -47v-35
q-70 0 -115.5 -47.5t-45.5 -118.5v-38q0 -75 40 -123q37 -44 88 -44q53 0 91 46t38 121v26h-166v31h337v-31z" />
    <glyph glyph-name="quotesingle" unicode="'" horiz-adv-x="142" 
d="M105 777l-25 -180h-12l-22 180q-6 41 30 42q16 0 24 -10.5t5 -31.5z" />
    <glyph glyph-name="parenleft" unicode="(" horiz-adv-x="387" 
d="M362 799q-99 -66 -155 -175q-59 -113 -59 -247q0 -122 47 -225t130 -169h-89q-83 78 -131 179q-50 106 -50 214q0 122 58 234q57 109 157 189h92z" />
    <glyph glyph-name="parenright" unicode=")" horiz-adv-x="414" 
d="M348 377q0 -110 -50 -216q-47 -101 -129 -178h-91q82 66 129.5 169t47.5 224q0 135 -59 248q-56 109 -155 175h92q101 -79 158 -189t57 -233z" />
    <glyph glyph-name="asterisk" unicode="*" horiz-adv-x="401" 
d="M338 673q0 -15 -45 -15h-46l23 -40q13 -23 13 -37q0 -7 -3 -9l-21 -12q-13 -8 -36 31l-23 40l-22 -40q-23 -39 -36 -31l-21 12q-13 7 10 46l23 40h-46q-45 0 -45 15v24q0 15 45 15h46l-23 39q-23 39 -10 47l21 12q13 7 36 -32l22 -39l23 39q23 39 36 32l21 -12q3 -2 3 -9
q0 -15 -13 -38l-23 -39h46q45 0 45 -15v-24z" />
    <glyph glyph-name="plus" unicode="+" horiz-adv-x="572" 
d="M489 309h-182v-174h-48v174h-180v40h180v189h48v-189h182v-40z" />
    <glyph glyph-name="comma" unicode="," horiz-adv-x="205" 
d="M157 39q0 -11 -3 -22l-39 -117h-26l5 84q-44 9 -44 53q0 21 16 37.5t38 16.5q21 0 37 -14.5t16 -37.5z" />
    <glyph glyph-name="hyphen" unicode="-" horiz-adv-x="401" 
d="M346 308q0 -15 -45 -15h-185q-45 0 -45 15v24q0 15 45 15h185q45 0 45 -15v-24z" />
    <glyph glyph-name="hyphen" unicode="&#x2010;" horiz-adv-x="401" 
d="M346 308q0 -15 -45 -15h-185q-45 0 -45 15v24q0 15 45 15h185q45 0 45 -15v-24z" />
    <glyph glyph-name="period" unicode="." horiz-adv-x="205" 
d="M158 37q0 -22 -16 -38.5t-38 -16.5t-38 16.5t-16 38.5q0 21 16 37.5t38 16.5t38 -16.5t16 -37.5z" />
    <glyph glyph-name="slash" unicode="/" horiz-adv-x="405" 
d="M429 869l-293 -931h-75l293 931h75z" />
    <glyph glyph-name="zero" unicode="0" horiz-adv-x="535" 
d="M494 178q0 -80 -65 -137t-158 -57t-158 55t-65 134v449q0 80 65.5 137t158.5 57t157.5 -55t64.5 -135v-448zM399 177v445q0 66 -37 112t-90 46t-90.5 -46t-37.5 -112v-445q0 -65 37 -111.5t90 -46.5t90.5 46.5t37.5 111.5z" />
    <glyph glyph-name="one" unicode="1" horiz-adv-x="251" 
d="M175 0h-78v765h-28v35h106v-800z" />
    <glyph glyph-name="two" unicode="2" horiz-adv-x="529" 
d="M489 606q0 -84 -92 -207q-14 -19 -156 -182q-104 -119 -106 -184h351v-33h-457q0 84 140 240h-1q14 15 42 46q89 97 126 156q59 92 59 174q0 75 -40 123q-37 44 -88 44q-53 0 -90 -44q-39 -48 -39 -123v-24h-93v40q0 74 65 129t155 55q89 0 152 -51q72 -58 72 -159z" />
    <glyph glyph-name="three" unicode="3" horiz-adv-x="510" 
d="M471 180q0 -93 -72 -148q-64 -49 -152 -49q-90 0 -155 55t-65 130v40h93v-24q0 -75 38 -121t91 -46q51 0 88 44q40 48 40 123v38q0 71 -45 118.5t-115 47.5v35q70 0 115 47t45 118v28q0 75 -40 123q-37 44 -88 44q-53 0 -90 -44q-39 -48 -39 -123v-24h-93v40q0 74 65 129
t155 55q89 0 152 -48q72 -55 72 -148v-35q0 -118 -130 -180q130 -59 130 -179v-46z" />
    <glyph glyph-name="four" unicode="4" horiz-adv-x="546" 
d="M517 176h-80v-176h-98v176h-326l301 624h123v-591h80v-33zM339 209v457q-38 -80 -217 -457h217z" />
    <glyph glyph-name="five" unicode="5" horiz-adv-x="517" 
d="M487 180q0 -92 -72 -147q-64 -49 -152 -49q-90 0 -155 55t-65 130v40h93v-25q0 -75 38 -121t91 -46q51 0 89.5 46t38.5 121v160q0 75 -40 123q-37 44 -88 44q-49 0 -89 -44.5t-40 -93.5h-93v425h412v-32h-319v-254q57 32 127 32q89 0 152 -48q72 -55 72 -148v-168z" />
    <glyph glyph-name="six" unicode="6" horiz-adv-x="530" 
d="M488 177q0 -80 -65.5 -136.5t-158.5 -56.5t-157.5 54.5t-64.5 134.5v448q0 94 69 148q62 47 153 47q89 0 152 -47q70 -51 70 -136v-40h-93v24q0 75 -39 123q-37 44 -90 44q-51 0 -88 -44q-40 -48 -40 -123v-114q53 33 129 33q93 0 158 -54.5t65 -134.5v-170zM393 177v166
q0 65 -37.5 111.5t-90.5 46.5t-90.5 -46.5t-37.5 -111.5v-166q0 -65 37.5 -111.5t89.5 -46.5q53 0 91 46.5t38 111.5z" />
    <glyph glyph-name="seven" unicode="7" horiz-adv-x="466" 
d="M470 772l-336 -772h-96l335 767h-342v33h439v-28z" />
    <glyph glyph-name="eight" unicode="8" horiz-adv-x="529" 
d="M487 177q0 -80 -65 -137t-158 -57t-158 54.5t-65 134.5v61q0 54 35 101t93 74h1q-58 27 -93.5 73t-35.5 99v42q0 80 65.5 137t158.5 57t157.5 -54.5t64.5 -134.5v-42q0 -52 -35.5 -99.5t-91.5 -75.5q56 -28 91 -73q36 -48 36 -99v-61zM392 584v38q0 66 -37 112.5
t-90 46.5t-90.5 -46.5t-37.5 -112.5v-38q0 -67 37.5 -112.5t90.5 -45.5q52 0 89.5 46.5t37.5 111.5zM392 176v57q0 67 -37 112.5t-91 45.5q-53 0 -90 -46t-37 -112v-57q0 -65 37 -111.5t90 -46.5t90.5 46.5t37.5 111.5z" />
    <glyph glyph-name="nine" unicode="9" horiz-adv-x="530" 
d="M488 180q0 -92 -72 -147q-64 -49 -153 -49q-90 0 -154.5 55t-64.5 130v40h93v-25q0 -75 38 -121t91 -46q51 0 89.5 46t38.5 121v114q-52 -33 -129 -33q-93 0 -158 55t-65 134v170q0 80 65.5 137t158.5 57t157.5 -55t64.5 -135v-448zM393 459v165q0 66 -37 112t-90 46
t-91 -46t-38 -112v-165q0 -66 37.5 -112.5t90.5 -46.5t90.5 46.5t37.5 112.5z" />
    <glyph glyph-name="colon" unicode=":" horiz-adv-x="205" 
d="M158 498q0 -22 -16 -38t-38 -16t-38 16t-16 38t16 38t38 16t38 -16t16 -38zM158 37q0 -22 -16 -38.5t-38 -16.5t-38 16.5t-16 38.5q0 21 16 37.5t38 16.5t38 -16.5t16 -37.5z" />
    <glyph glyph-name="semicolon" unicode=";" horiz-adv-x="205" 
d="M158 498q0 -22 -16 -38t-38 -16t-38 16t-16 38t16 38t38 16t38 -16t16 -38zM157 39q0 -11 -3 -22l-39 -117h-26l5 84q-44 9 -44 53q0 21 16 37.5t38 16.5q21 0 37 -14.5t16 -37.5z" />
    <glyph glyph-name="less" unicode="&#x3c;" horiz-adv-x="515" 
d="M451 172l-27 -47l-376 214v31l377 217l26 -50l-316 -182q51 -29 158.5 -91.5t157.5 -91.5z" />
    <glyph glyph-name="equal" unicode="=" horiz-adv-x="620" 
d="M542 377h-463v41h463v-41zM542 240h-463v40h463v-40z" />
    <glyph glyph-name="greater" unicode="&#x3e;" horiz-adv-x="515" 
d="M458 341l-375 -216l-27 48l315 182q-50 29 -157.5 91.5t-158.5 91.5l27 48l376 -214v-31z" />
    <glyph glyph-name="question" unicode="?" horiz-adv-x="543" 
d="M500 595q0 -73 -37 -147q-24 -47 -80 -119q-48 -62 -67 -97q-30 -56 -30 -108h-94q0 76 111 217q53 67 75 119q28 64 28 139t-40 123q-37 44 -88 44q-53 0 -91 -46t-38 -121v-24h-93v39q0 75 65 130t155 55q89 0 152 -49q72 -56 72 -155zM294 39q0 -22 -16 -38t-38 -16
q-21 0 -37.5 16t-16.5 38t16.5 38t37.5 16q22 0 38 -16t16 -38z" />
    <glyph glyph-name="at" unicode="@" horiz-adv-x="1050" 
d="M1006 492q0 -125 -92.5 -218.5t-216.5 -93.5q-62 0 -107 47q-53 -44 -136 -44q-84 0 -134 43t-50 120q0 109 78 189.5t182 80.5q66 0 106 -27q1 2 1.5 4.5t0.5 3.5h98l-69 -283q-4 -17 -4 -34q0 -64 54 -64q72 0 132.5 89t60.5 190q0 132 -102 220.5t-248 88.5
q-171 0 -291 -117q-126 -123 -126 -312q0 -152 111 -257.5t270 -105.5q75 0 157 31q93 34 166 100l33 -49q-141 -113 -355 -113q-209 0 -344 112.5t-135 287.5q0 195 146.5 326.5t366.5 131.5q193 0 320 -99t127 -248zM604 472q4 15 4 29q0 35 -21 58t-50 23q-69 0 -121 -73
t-52 -160q0 -58 23 -94q25 -40 71 -40q33 0 67 38.5t47 91.5z" />
    <glyph glyph-name="A" unicode="A" 
d="M484 0h-95v265h-257v-265h-95v622q0 80 65.5 137t157.5 57q93 0 158.5 -57t65.5 -137v-622zM389 299v323q0 66 -38 112t-91 46t-90.5 -46t-37.5 -112v-323h257z" />
    <glyph glyph-name="B" unicode="B" horiz-adv-x="498" 
d="M470 114q0 -56 -29 -82q-35 -32 -120 -32h-276v800h266q159 0 159 -117v-306q0 -76 -72 -92h2q70 -23 70 -77v-94zM375 363v327q0 74 -60 74h-175v-461h201q34 0 34 60zM375 92v106q0 67 -35 67h-200v-237h189q46 0 46 64z" />
    <glyph glyph-name="C" unicode="C" horiz-adv-x="507" 
d="M482 169q0 -75 -65 -130t-154 -55t-153 49q-72 55 -72 147v438q0 93 72 148q64 49 153 49q92 0 155.5 -51t63.5 -134v-59h-93v44q0 82 -39 127q-35 40 -90 40q-51 0 -88 -44q-40 -48 -40 -123v-431q0 -75 40 -122q37 -45 88 -45q53 0 91 46t38 121v44h93v-59z" />
    <glyph glyph-name="D" unicode="D" 
d="M489 209q0 -209 -258 -209h-187v800h202q243 0 243 -207v-384zM395 206v375q0 184 -139 184h-117v-733h93q76 0 119.5 44.5t43.5 129.5z" />
    <glyph glyph-name="E" unicode="E" horiz-adv-x="467" 
d="M438 265h-299v-232h298v-33h-393v800h394v-35h-299v-465h299v-35z" />
    <glyph glyph-name="F" unicode="F" horiz-adv-x="467" 
d="M438 265h-301v-265h-93v800h394v-33h-301v-467h301v-35z" />
    <glyph glyph-name="G" unicode="G" horiz-adv-x="503" 
d="M483 571h-93v44q0 79 -39 125q-36 42 -90 42q-53 0 -90 -44q-39 -47 -39 -122v-432q0 -75 40 -122q37 -45 88 -45t88.5 47.5t37.5 123.5v77h-151v35h245v-131q0 -75 -63.5 -130t-153.5 -55q-89 0 -153 49q-72 55 -72 147v439q0 93 71 148q63 48 153 48q92 0 156.5 -51
t64.5 -134v-59z" />
    <glyph glyph-name="H" unicode="H" horiz-adv-x="537" 
d="M503 0h-93v265h-280v-265h-97v800h97v-500h280v500h93v-800z" />
    <glyph glyph-name="I" unicode="I" horiz-adv-x="205" 
d="M150 0h-95v800h95v-800z" />
    <glyph glyph-name="J" unicode="J" horiz-adv-x="506" 
d="M475 180q0 -92 -72 -147q-64 -49 -153 -49t-154 55t-65 130v59h93v-44q0 -75 38 -121t91 -46q51 0 89.5 46t38.5 121v615h94v-619z" />
    <glyph glyph-name="K" unicode="K" horiz-adv-x="511" 
d="M519 0h-128l-258 253v-253h-95v799h95v-407l342 408h41l-360 -432z" />
    <glyph glyph-name="L" unicode="L" horiz-adv-x="467" 
d="M440 0h-393v800h95v-766h298v-34z" />
    <glyph glyph-name="M" unicode="M" horiz-adv-x="727" 
d="M688 -1h-92v648q0 64 -26 100q-25 33 -66 33q-42 0 -67 -33q-28 -36 -28 -100v-648h-91v648q0 64 -28 100q-25 33 -67 33q-41 0 -65 -33q-27 -36 -27 -100v-648h-92v648q0 78 54 125q51 44 130 44q88 0 140 -50q53 50 141 50q79 0 130 -44q54 -47 54 -125v-648z" />
    <glyph glyph-name="N" unicode="N" 
d="M490 0h-96v591q0 74 -34 123q-36 53 -100 53h-125l1 -767h-97v800h224q106 0 166.5 -58t60.5 -155v-587z" />
    <glyph glyph-name="O" unicode="O" horiz-adv-x="520" 
d="M489 178q0 -80 -65 -137t-158 -57t-158 55t-65 134v449q0 80 65.5 137t158.5 57t157.5 -55t64.5 -135v-448zM394 177v445q0 66 -37 112t-90 46t-90.5 -46t-37.5 -112v-445q0 -65 37 -111.5t90 -46.5t90.5 46.5t37.5 111.5z" />
    <glyph glyph-name="P" unicode="P" horiz-adv-x="493" 
d="M474 474q0 -209 -259 -209h-73v-265h-97v800h185q244 0 244 -207v-119zM379 471v110q0 184 -139 184h-98v-468h74q76 0 119.5 44.5t43.5 129.5z" />
    <glyph glyph-name="Q" unicode="Q" horiz-adv-x="525" 
d="M489 178q0 -52 -33.5 -98t-88.5 -74l106 -93v-81l-180 153q-9 -1 -27 -1q-93 0 -158 55t-65 134v449q0 80 65.5 137t158.5 57t157.5 -55t64.5 -135v-448zM394 177v445q0 66 -37 112t-90 46t-90.5 -46t-37.5 -112v-414l189 -170q66 46 66 139z" />
    <glyph glyph-name="R" unicode="R" horiz-adv-x="495" 
d="M468 474q0 -185 -204 -206l201 -268h-90l-199 265h-40v-265h-97v800h185q244 0 244 -207v-119zM373 471v110q0 184 -139 184h-98v-468h74q76 0 119.5 44.5t43.5 129.5z" />
    <glyph glyph-name="S" unicode="S" horiz-adv-x="457" 
d="M438 636h-94v18q0 131 -104 131q-45 0 -76.5 -37t-31.5 -94q0 -53 21 -81l238 -323q43 -58 43 -108q0 -69 -60 -115.5t-147 -46.5q-92 0 -150 47.5t-58 121.5v21h94v-18q0 -60 31 -99q33 -43 86 -43q45 0 76.5 37t31.5 94q0 52 -22 82l-237 322q-42 57 -42 108
q0 72 58.5 117t143.5 45q91 0 145 -41.5t54 -116.5v-21z" />
    <glyph glyph-name="T" unicode="T" horiz-adv-x="460" 
d="M455 767h-176v-767h-94v767h-179v32h449v-32z" />
    <glyph glyph-name="U" unicode="U" 
d="M483 176q0 -80 -65.5 -136.5t-158.5 -56.5q-92 0 -157.5 57t-65.5 137v622h95v-622q0 -66 37.5 -112.5t90.5 -46.5t91 46.5t38 112.5v622h95v-623z" />
    <glyph glyph-name="V" unicode="V" horiz-adv-x="432" 
d="M435 800l-186 -800h-56l-192 800h93l159 -634l149 634h33z" />
    <glyph glyph-name="W" unicode="W" horiz-adv-x="727" 
d="M688 151q0 -78 -52.5 -123t-131.5 -45q-88 0 -140 50q-53 -50 -141 -50q-79 0 -130 44q-54 47 -54 125v648h92v-648q0 -64 27 -100q24 -34 65 -34t68 35t27 99v648h91l1 -648q0 -64 26.5 -99t67.5 -35t66.5 35t25.5 99v648h92v-649z" />
    <glyph glyph-name="X" unicode="X" horiz-adv-x="517" 
d="M484 -1h-96v248l-128 105q-42 -35 -128 -105v-248h-96v203q0 38 43 74l136 113q-46 37 -135 111q-43 36 -43 75v225h94v-265l129 -108q58 49 129 108v265h94v-225q0 -39 -44 -75.5t-134 -110.5q46 -39 136 -113q43 -36 43 -74v-203z" />
    <glyph glyph-name="Y" unicode="Y" horiz-adv-x="512" 
d="M479 464q0 -86 -56 -140q-48 -48 -123 -58v-266h-94v267q-72 12 -120 62q-53 56 -53 136v334h97v-346q0 -67 40 -112q37 -42 85 -42q52 0 90.5 43t38.5 111v346h95v-335z" />
    <glyph glyph-name="Z" unicode="Z" horiz-adv-x="510" 
d="M477 0h-439v27l339 740h-339v33h439v-26l-338 -740h338v-34z" />
    <glyph glyph-name="bracketleft" unicode="[" horiz-adv-x="417" 
d="M344 -55h-222v894h222v-31h-126v-832h126v-31z" />
    <glyph glyph-name="backslash" unicode="\" horiz-adv-x="405" 
d="M420 -62h-95l-293 931h95z" />
    <glyph glyph-name="bracketright" unicode="]" horiz-adv-x="396" 
d="M305 -55h-222v31h126v832h-126v31h222v-894z" />
    <glyph glyph-name="asciicircum" unicode="^" horiz-adv-x="490" 
d="M457 726h-91l-125 116l-122 -116h-94l165 172h100z" />
    <glyph glyph-name="underscore" unicode="_" horiz-adv-x="578" 
d="M569 -196h-560v98h560v-98z" />
    <glyph glyph-name="grave" unicode="`" horiz-adv-x="310" 
d="M243 855h-72l-123 181h103z" />
    <glyph glyph-name="a" unicode="a" horiz-adv-x="503" 
d="M474 0h-95v17q-56 -33 -129 -33q-102 0 -163.5 54t-61.5 140q0 88 65 146t161 58q78 0 128 -32v107q0 65 -38 111.5t-91 46.5q-52 0 -90 -46.5t-38 -111.5v-39h-95v39q0 80 65.5 136.5t157.5 56.5q95 0 159.5 -55.5t64.5 -137.5v-457zM378 189q0 65 -37 111.5t-90 46.5
q-58 0 -93.5 -49t-35.5 -121q0 -65 37.5 -111.5t90.5 -46.5q58 0 93 49t35 121z" />
    <glyph glyph-name="b" unicode="b" horiz-adv-x="500" 
d="M486 178q0 -80 -65.5 -137t-158.5 -57q-73 0 -127 30v-14h-95v800h95v-183q54 32 128 32q93 0 158 -55t65 -134v-282zM390 177v279q0 65 -37 111.5t-90 46.5q-51 0 -89.5 -42.5t-38.5 -103.5v-303q0 -61 38 -103.5t89 -42.5q53 0 90.5 46.5t37.5 111.5z" />
    <glyph glyph-name="c" unicode="c" horiz-adv-x="502" 
d="M477 169q0 -75 -65 -130t-154 -55t-153 49q-72 55 -72 147v273q0 93 72 148q64 49 153 49t154 -55t65 -130v-59h-93v44q0 75 -38.5 121t-90.5 46q-51 0 -88 -44q-40 -48 -40 -123v-266q0 -75 40 -122q37 -45 88 -45q53 0 91 46t38 121v44h93v-59z" />
    <glyph glyph-name="d" unicode="d" 
d="M484 0h-95v14q-54 -30 -127 -30q-93 0 -158.5 57t-65.5 137v282q0 79 65 134t158 55q74 0 128 -32v183h95v-800zM389 165v303q0 61 -38.5 103.5t-89.5 42.5q-53 0 -90 -46.5t-37 -111.5v-279q0 -65 37.5 -111.5t90.5 -46.5q51 0 89 42.5t38 103.5z" />
    <glyph glyph-name="e" unicode="e" horiz-adv-x="507" 
d="M479 169q0 -75 -64.5 -130t-154.5 -55q-89 0 -153 49q-72 55 -72 147v273q0 93 72 148q64 49 153 49q90 0 154.5 -55t64.5 -130v-162h-350v-119q0 -75 40 -122q37 -45 88 -45q53 0 91 46t38 121v44h93v-59zM386 339v111q0 75 -38 121t-91 46q-51 0 -88 -44
q-40 -48 -40 -123v-111h257z" />
    <glyph glyph-name="f" unicode="f" horiz-adv-x="485" 
d="M491 571h-94v44q0 75 -38 121t-91 46q-54 0 -91.5 -45t-37.5 -121v-316h301v-35h-301v-265h-95v614q0 96 70 151q64 50 157 50q90 0 155 -55t65 -130v-59z" />
    <glyph glyph-name="g" unicode="g" horiz-adv-x="494" 
d="M496 -71q0 -89 -71.5 -152t-173.5 -63t-173.5 63t-71.5 152q0 31 16 71h91q-14 -37 -14 -71q0 -76 44.5 -129.5t107.5 -53.5t108 53.5t45 128.5q0 76 -44.5 129.5t-107.5 53.5q-71 0 -121 -61q-10 10 -44 55l109 155q-75 18 -124 71.5t-49 120.5q0 82 66.5 139.5
t161.5 57.5q69 0 111 -23l41 41l46 -42l-36 -35h2q64 -67 64 -138q0 -73 -55 -128t-137 -68q-30 -38 -89 -116q23 4 53 4q102 0 173.5 -63t71.5 -152zM386 452q0 68 -39.5 116t-95.5 48t-95.5 -48t-39.5 -116t39.5 -116.5t95.5 -48.5t95.5 48.5t39.5 116.5z" />
    <glyph glyph-name="h" unicode="h" horiz-adv-x="505" 
d="M479 -1h-95v460q0 65 -38 111.5t-91 46.5q-50 0 -88.5 -44.5t-38.5 -104.5v-469h-96v801h96v-180q54 32 127 32q93 0 158.5 -56.5t65.5 -136.5v-460z" />
    <glyph glyph-name="i" unicode="i" horiz-adv-x="200" 
d="M157 745q0 -22 -16 -38t-38 -16t-38 16t-16 38t16 38t38 16t38 -16t16 -38zM148 0h-94v635h94v-635z" />
    <glyph glyph-name="j" unicode="j" horiz-adv-x="205" 
d="M163 745q0 -22 -16 -38t-38 -16t-38 16t-16 38t16 38t38 16t38 -16t16 -38zM156 -57q0 -95 -52 -159q-57 -69 -156 -69h-51v31h48q49 0 84 55q32 52 32 119v715h95v-692z" />
    <glyph glyph-name="k" unicode="k" horiz-adv-x="505" 
d="M479 -1h-95v149q0 66 -38 112.5t-91 46.5q-49 0 -88 -45t-39 -104l-1 -159h-95v801h96v-473q41 51 124.5 154t123.5 153h94l-240 -293q8 1 25 1q93 0 158.5 -57t65.5 -137v-149z" />
    <glyph glyph-name="l" unicode="l" horiz-adv-x="190" 
d="M150 0h-95v800h95v-800z" />
    <glyph glyph-name="m" unicode="m" horiz-adv-x="727" 
d="M688 -1h-92v485q0 63 -25.5 98t-66.5 35t-68 -35t-27 -98v-485h-91v485q0 63 -27 98t-68 35t-65 -34q-27 -36 -27 -99v-485h-92v485q0 78 54 124q51 44 130 44q89 0 140 -49q52 49 141 49q79 0 130 -44q54 -47 54 -124v-485z" />
    <glyph glyph-name="n" unicode="n" horiz-adv-x="505" 
d="M479 -1h-95v460q0 65 -38 111.5t-91 46.5t-90.5 -46.5t-37.5 -111.5v-460h-95v460q0 80 65.5 136.5t157.5 56.5q93 0 158.5 -56.5t65.5 -136.5v-460z" />
    <glyph glyph-name="o" unicode="o" horiz-adv-x="509" 
d="M482 178q0 -80 -65 -137t-158 -57t-158 55t-65 134v282q0 80 65.5 137t158.5 57t157.5 -55t64.5 -134v-282zM387 177v278q0 66 -37 112.5t-90 46.5t-90.5 -46.5t-37.5 -112.5v-278q0 -65 37 -111.5t90 -46.5t90.5 46.5t37.5 111.5z" />
    <glyph glyph-name="p" unicode="p" horiz-adv-x="521" 
d="M491 173q0 -80 -65 -134.5t-158 -54.5q-74 0 -128 32v-301h-95v918h95v-14q54 30 127 30q93 0 158.5 -57t65.5 -137v-282zM395 177v278q0 66 -37.5 112.5t-90.5 46.5q-51 0 -89 -42.5t-38 -103.5v-303q0 -61 38.5 -103.5t89.5 -42.5q53 0 90 46.5t37 111.5z" />
    <glyph glyph-name="q" unicode="q" horiz-adv-x="500" 
d="M481 -285h-96v301q-55 -32 -128 -32q-93 0 -157.5 54.5t-64.5 134.5v282q0 80 65.5 137t158.5 57q73 0 126 -30v14h96v-918zM385 165v303q0 61 -37.5 103.5t-88.5 42.5q-53 0 -91 -46.5t-38 -112.5v-278q0 -65 37 -111.5t90 -46.5q51 0 89.5 42.5t38.5 103.5z" />
    <glyph glyph-name="r" unicode="r" horiz-adv-x="498" 
d="M488 444h-95v15q0 65 -38 111.5t-91 46.5q-50 0 -89 -45t-39 -104v-468h-95v636h96v-16q54 32 127 32q93 0 158.5 -56.5t65.5 -136.5v-15z" />
    <glyph glyph-name="s" unicode="s" horiz-adv-x="457" 
d="M438 471h-94v18q0 131 -104 131q-45 0 -76.5 -37t-31.5 -94q0 -72 48 -104l164 -110q90 -61 90 -133q0 -69 -60 -115.5t-147 -46.5q-92 0 -150 47.5t-58 121.5v21h94v-18q0 -60 31 -99q32 -43 86 -43q45 0 76.5 37t31.5 94q0 68 -80 129l-138 88q-83 56 -83 130
q0 72 58 117t144 45q90 0 144.5 -41.5t54.5 -115.5v-22z" />
    <glyph glyph-name="t" unicode="t" horiz-adv-x="327" 
d="M309 -13h-51q-98 0 -155 69q-53 64 -53 159v583h95v-164h144v-32h-144v-410q0 -68 33.5 -121t82.5 -53h48v-31z" />
    <glyph glyph-name="u" unicode="u" 
d="M483 176q0 -80 -65.5 -136.5t-157.5 -56.5q-93 0 -158.5 57t-65.5 137v457h95v-457q0 -66 38 -112.5t91 -46.5t90.5 46.5t37.5 112.5v457h95v-458z" />
    <glyph glyph-name="v" unicode="v" horiz-adv-x="387" 
d="M394 635l-172 -635h-48l-177 634h93l138 -484l131 485h35z" />
    <glyph glyph-name="w" unicode="w" horiz-adv-x="727" 
d="M687 152q0 -78 -52.5 -123t-131.5 -45q-90 0 -140 50q-52 -50 -140 -50q-79 0 -130 44q-54 47 -54 125v483h92v-483q0 -64 25.5 -99t66.5 -35t67.5 35t26.5 99v483h92v-483q0 -64 28 -100q25 -34 66 -34t66.5 35t25.5 99v483h92v-484z" />
    <glyph glyph-name="x" unicode="x" horiz-adv-x="517" 
d="M484 -1h-96v168l-128 105q-42 -35 -128 -105v-168h-96v123q0 39 43 75l136 113q-46 37 -135 110q-43 34 -43 76v140h94v-181l129 -107l129 107v181h94v-140q0 -41 -43 -76l-135 -110q46 -39 136 -113q43 -36 43 -75v-123z" />
    <glyph glyph-name="y" unicode="y" 
d="M484 -92q0 -81 -64 -137t-160 -56q-92 0 -157.5 56.5t-65.5 136.5v33h95v-33q0 -65 37.5 -111.5t90.5 -46.5t91 46.5t38 111.5v106q-53 -31 -128 -31q-93 0 -158.5 57t-65.5 137v458h96v-459q0 -65 37.5 -111.5t90.5 -46.5t90 46.5t37 111.5v458h96v-726z" />
    <glyph glyph-name="z" unicode="z" horiz-adv-x="490" 
d="M467 0h-439v27l340 576h-340v33h439v-26l-339 -576h339v-34z" />
    <glyph glyph-name="braceleft" unicode="{" horiz-adv-x="505" 
d="M438 -97h-30q-109 0 -146 22q-71 43 -71 146v105q0 95 -24 111q-34 23 -115 33v20q19 3 45 7q19 2 61 16q33 17 33 122v105q0 107 72 146q38 20 175 25v-22q-76 -5 -110.5 -41t-34.5 -115v-47q0 -103 -21 -139q-29 -49 -126 -66h-1q95 -13 127 -71q23 -42 23 -143v-48
q0 -103 41 -126q29 -17 102 -18v-22z" />
    <glyph glyph-name="bar" unicode="|" horiz-adv-x="550" 
d="M332 -234h-112v998h112v-998z" />
    <glyph glyph-name="braceright" unicode="}" horiz-adv-x="505" 
d="M481 317h-26q-55 -7 -89 -30q-24 -16 -24 -111v-105q0 -103 -70 -146q-36 -22 -177 -22v22q70 3 102 18q41 25 41 126v48q0 101 23 143q32 58 127 71h-1q-97 17 -126 66q-21 36 -21 139v47q0 79 -34.5 115t-110.5 41v22q137 -5 175 -25q72 -39 72 -146v-105
q0 -104 34 -122q22 -11 60 -16q19 -3 45 -7v-23z" />
    <glyph glyph-name="asciitilde" unicode="~" horiz-adv-x="725" 
d="M677 750q-78 -65 -161 -65q-48 0 -141.5 31t-150.5 31q-74 0 -167 -77v62q99 70 179 70q53 0 145.5 -31.5t136.5 -31.5q80 0 159 73v-62z" />
    <glyph glyph-name="nonbreakingspace" unicode="&#xa0;" horiz-adv-x="378" 
 />
    <glyph glyph-name="exclamdown" unicode="&#xa1;" horiz-adv-x="280" 
d="M191 780q0 -22 -16 -38t-38 -16t-38 16t-16 38t16 38t38 16t38 -16t16 -38zM191 59q0 -25 -15.5 -43t-36.5 -18q-22 0 -38 16.5t-16 44.5l6 622h94z" />
    <glyph glyph-name="cent" unicode="&#xa2;" horiz-adv-x="581" 
d="M527 253q0 -71 -58.5 -124.5t-141.5 -59.5v-69h-41v69q-83 7 -139 55q-64 54 -64 140v273q0 87 64 141q56 48 139 55v81h41v-81q83 -6 141.5 -59.5t58.5 -124.5v-59h-93v44q0 66 -32 112q-30 43 -75 53v-596q45 10 75 52q32 46 32 113v44h93v-59zM286 103v596
q-45 -9 -76 -52q-33 -46 -33 -113v-266q0 -67 33 -114q31 -42 76 -51z" />
    <glyph glyph-name="sterling" unicode="&#xa3;" horiz-adv-x="484" 
d="M419 0h-350v229h-48v37h48v409q0 57 46 90.5t128 33.5h81v-33h-85q-32 0 -51.5 -24t-19.5 -64v-412h104v-37h-104v-195h251v-34z" />
    <glyph glyph-name="currency" unicode="&#xa4;" horiz-adv-x="604" 
d="M546 252q0 -75 -65 -130t-154 -55t-153 49q-72 55 -72 147v53h-62v33h62v89h-62v33h62v65q0 93 72 148q64 49 153 49t154 -55t65 -130v-59h-93v44q0 75 -38.5 121t-90.5 46q-51 0 -88 -44q-40 -48 -40 -123v-62h213v-33h-213v-89h213v-33h-213v-49q0 -75 40 -122
q37 -45 88 -45q53 0 91 46t38 121v44h93v-59z" />
    <glyph glyph-name="yen" unicode="&#xa5;" horiz-adv-x="443" 
d="M465 635l-302 -920h-39l88 268l-226 651h92l180 -516l169 517h38z" />
    <glyph glyph-name="section" unicode="&#xa7;" horiz-adv-x="558" 
d="M489 637h-94v18q0 131 -105 131q-45 0 -76.5 -37t-31.5 -94q0 -70 48 -104h-1q56 -37 166 -110q89 -58 89 -133q0 -34 -29 -83h-1q30 -44 30 -83q0 -69 -60 -115.5t-147 -46.5q-92 0 -150 47.5t-58 121.5v21h94v-18q0 -60 31 -99q32 -43 86 -43q45 0 76.5 37t31.5 94
q0 68 -80 129l-138 88q-83 56 -83 130q0 39 28 83q-28 46 -28 83q0 72 58 117t144 45q90 0 145 -41.5t55 -115.5v-22zM388 307q0 47 -36 89q-27 31 -82 65q-43 27 -86 53q-2 -7 -2 -25q0 -70 48 -104h-1l157 -106q2 16 2 28z" />
    <glyph glyph-name="dieresis" unicode="&#xa8;" horiz-adv-x="380" 
d="M318 978q0 -22 -16 -38t-38 -16t-38 16t-16 38t16 38t38 16t38 -16t16 -38zM162 978q0 -22 -16 -38t-38 -16t-38 16t-16 38t16 38t38 16t38 -16t16 -38z" />
    <glyph glyph-name="copyright" unicode="&#xa9;" horiz-adv-x="838" 
d="M768 342q0 -151 -100 -257.5t-242 -106.5t-242.5 106.5t-100.5 257.5q0 150 100.5 256.5t242.5 106.5t242 -106.5t100 -256.5zM726 342q0 137 -88 233t-212 96t-212 -96.5t-88 -232.5t88 -233t212 -97t212 96.5t88 233.5zM594 184q0 -53 -49.5 -92.5t-116.5 -39.5
q-66 0 -114 35q-54 39 -54 105v296q0 66 54 105q48 35 114 35q67 0 116.5 -39.5t49.5 -92.5v-47h-96v37q0 48 -21 77t-50 29q-28 0 -48 -28q-22 -31 -22 -78v-292q0 -47 21 -76.5t49 -29.5q29 0 50 29t21 77v37h96v-47z" />
    <glyph glyph-name="ordfeminine" unicode="&#xaa;" horiz-adv-x="353" 
d="M334 359h-67v12q-39 -23 -90 -23q-72 0 -115 37.5t-43 97.5q0 62 46 102.5t113 40.5q54 0 89 -22v75q0 45 -26.5 77.5t-63.5 32.5t-63.5 -32.5t-26.5 -77.5v-28h-66v28q0 56 46 95.5t110 39.5q67 0 112 -39t45 -96v-320zM267 491q0 46 -26.5 78.5t-62.5 32.5
q-41 0 -66 -34.5t-25 -84.5q0 -46 26.5 -78.5t63.5 -32.5q40 0 65 34.5t25 84.5z" />
    <glyph glyph-name="guillemotleft" unicode="&#xab;" horiz-adv-x="518" 
d="M413 223h-1q6 -6 6 -11q0 -13 -25 -13q-24 0 -39 14q-77 72 -155 146v0q1 -1 3 -2q-9 9 -2 15l154 146q12 12 34 12q29 0 29 -16q0 -4 -4 -9l-125 -141zM271 223h-1q6 -6 6 -11q0 -13 -25 -13q-24 0 -39 14l-154 144q-8 7 0 15l142 135q17 16 49 16q25 0 25 -10
q0 -4 -4 -8h1q-20 -23 -61.5 -70t-62.5 -71q57 -64 124 -141z" />
    <glyph glyph-name="registered" unicode="&#xae;" horiz-adv-x="573" 
d="M537 504q0 -109 -71.5 -187t-173.5 -78q-101 0 -173 77.5t-72 187.5t72 187.5t173 77.5t173 -78t72 -187zM328 498v127q0 35 -3 35h-55v-193h55q3 0 3 31zM497 504q0 98 -60.5 167t-144.5 69q-85 0 -145.5 -69.5t-60.5 -166.5t60.5 -166.5t145.5 -69.5q69 0 125 49h-76
l-48 119h-23v-119h-92v375h148q94 0 94 -62v-143q0 -42 -36 -49q15 -36 44 -110q69 72 69 176z" />
    <glyph glyph-name="macron" unicode="&#xaf;" horiz-adv-x="396" 
d="M365 865h-330v28h330v-28z" />
    <glyph glyph-name="macron" unicode="&#x2c9;" horiz-adv-x="396" 
d="M365 865h-330v28h330v-28z" />
    <glyph glyph-name="acute" unicode="&#xb4;" horiz-adv-x="310" 
d="M246 1036l-123 -181h-72l92 181h103z" />
    <glyph glyph-name="paragraph" unicode="&#xb6;" horiz-adv-x="481" 
d="M418 0h-35v732h-61v-732h-35v380h-31q-80 0 -136.5 56.5t-56.5 136.5q0 81 56.5 137.5t136.5 56.5h162v-767z" />
    <glyph glyph-name="periodcentered" unicode="&#xb7;" horiz-adv-x="223" 
d="M167 298q0 -22 -16 -38t-38 -16t-38 16t-16 38t16 38t38 16t38 -16t16 -38z" />
    <glyph glyph-name="periodcentered" unicode="&#x2219;" horiz-adv-x="223" 
d="M167 298q0 -22 -16 -38t-38 -16t-38 16t-16 38t16 38t38 16t38 -16t16 -38z" />
    <glyph glyph-name="cedilla" unicode="&#xb8;" horiz-adv-x="545" 
d="M422 -157q0 -79 -154 -79q-60 0 -128 31v40q78 -45 129 -45q65 0 65 53q0 23 -24 40q-22 14 -45 14q-17 0 -57 -4v107h93v-78q49 -4 82 -23q39 -22 39 -56z" />
    <glyph glyph-name="ordmasculine" unicode="&#xba;" horiz-adv-x="353" 
d="M336 485q0 -57 -45.5 -96.5t-110.5 -39.5t-110.5 38.5t-45.5 93.5v198q0 56 45.5 95.5t110.5 39.5q66 0 111 -38t45 -94v-197zM269 484v195q0 46 -25.5 78.5t-63.5 32.5q-37 0 -63 -32.5t-26 -78.5v-195q0 -46 26 -78.5t63 -32.5t63 32.5t26 78.5z" />
    <glyph glyph-name="guillemotright" unicode="&#xbb;" horiz-adv-x="524" 
d="M456 357l-153 -144q-16 -15 -40 -15t-24 14q0 5 5 11h-1q21 24 63 71t62 70l-125 141h1q-5 5 -5 10q0 14 30 14q22 0 34 -11l153 -146q8 -8 0 -15zM317 357l-153 -144q-16 -15 -40 -15t-24 14q0 5 5 11h-1q21 24 63 71t62 70l-125 141h1q-5 5 -5 10q0 14 30 14
q22 0 34 -11l153 -146q8 -8 0 -15z" />
    <glyph glyph-name="questiondown" unicode="&#xbf;" horiz-adv-x="543" 
d="M366 746q0 -22 -16 -38t-38 -16t-38 16t-16 38t16 38t38 16t38 -16t16 -38zM497 171q0 -75 -65.5 -130t-154.5 -55q-90 0 -153 49q-71 56 -71 155q0 73 37 147q24 46 80 119q48 62 66 96q31 57 31 109h94q0 -77 -111 -217q-53 -67 -76 -119q-27 -64 -27 -139t40 -123
q37 -44 88 -44q52 0 90.5 46t38.5 121v24h93v-39z" />
    <glyph glyph-name="Agrave" unicode="&#xc0;" 
d="M479 0h-95v265h-257v-265h-95v622q0 80 65.5 137t157.5 57q93 0 158.5 -57t65.5 -137v-622zM384 299v323q0 66 -38 112t-91 46t-90.5 -46t-37.5 -112v-323h257zM328 855h-72l-123 181h103z" />
    <glyph glyph-name="Aacute" unicode="&#xc1;" 
d="M479 0h-95v265h-257v-265h-95v622q0 80 65.5 137t157.5 57q93 0 158.5 -57t65.5 -137v-622zM384 299v323q0 66 -38 112t-91 46t-90.5 -46t-37.5 -112v-323h257zM410 1036l-123 -181h-72l92 181h103z" />
    <glyph glyph-name="Acircumflex" unicode="&#xc2;" 
d="M479 0h-95v265h-257v-265h-95v622q0 80 65.5 137t157.5 57q93 0 158.5 -57t65.5 -137v-622zM384 299v323q0 66 -38 112t-91 46t-90.5 -46t-37.5 -112v-323h257zM391 841h-71l-62 58l-61 -58h-71l93 117h78z" />
    <glyph glyph-name="Atilde" unicode="&#xc3;" 
d="M479 0h-95v265h-257v-265h-95v622q0 80 65.5 137t157.5 57q93 0 158.5 -57t65.5 -137v-622zM384 299v323q0 66 -38 112t-91 46t-90.5 -46t-37.5 -112v-323h257zM459 979q-29 -38 -58 -75q-39 -41 -81 -41q-31 0 -83.5 34t-75.5 34t-44 -22l-34 -40l-30 12q52 70 59 77
q39 41 84 41q30 0 82 -34t73 -34q32 0 78 60z" />
    <glyph glyph-name="Adieresis" unicode="&#xc4;" 
d="M479 0h-95v265h-257v-265h-95v622q0 80 65.5 137t157.5 57q93 0 158.5 -57t65.5 -137v-622zM384 299v323q0 66 -38 112t-91 46t-90.5 -46t-37.5 -112v-323h257zM388 920q0 -22 -16 -38t-38 -16t-38 16t-16 38t16 38t38 16t38 -16t16 -38zM232 920q0 -22 -16 -38t-38 -16
q-21 0 -37.5 16t-16.5 38t16.5 38t37.5 16q22 0 38 -16t16 -38z" />
    <glyph glyph-name="Aring" unicode="&#xc5;" 
d="M479 0h-95v265h-257v-265h-95v622q0 80 65.5 137t157.5 57q93 0 158.5 -57t65.5 -137v-622zM384 299v323q0 66 -38 112t-91 46t-90.5 -46t-37.5 -112v-323h257zM375 938q0 -41 -33.5 -70.5t-81.5 -29.5q-49 0 -82 29t-33 71t33 71t82 29q48 0 81.5 -29t33.5 -71zM326 938
q0 30 -19 50.5t-47 20.5t-47 -20.5t-19 -50.5t18.5 -50.5t47.5 -20.5q28 0 47 21t19 50z" />
    <glyph glyph-name="AE" unicode="&#xc6;" horiz-adv-x="812" 
d="M783 265h-299v-232h298v-33h-393v265h-257v-265h-95v622q0 80 65.5 137t157.5 57q77 0 129 -33v17h394v-35h-299v-465h299v-35zM389 299v323q0 66 -38 112t-91 46t-90.5 -46t-37.5 -112v-323h257z" />
    <glyph glyph-name="Ccedilla" unicode="&#xc7;" horiz-adv-x="507" 
d="M482 169q0 -66 -52 -118t-129 -64v-65q49 -4 82 -23q39 -22 39 -56q0 -79 -154 -79q-60 0 -128 31v40q78 -45 129 -45q65 0 65 53q0 23 -24 40q-22 14 -45 14q-17 0 -57 -4v97q-73 14 -118 61q-52 52 -52 129v438q0 93 72 148q64 49 153 49q92 0 155.5 -51t63.5 -134v-59
h-93v44q0 82 -39 127q-35 40 -90 40q-51 0 -88 -44q-40 -48 -40 -123v-431q0 -75 40 -122q37 -45 88 -45q53 0 91 46t38 121v44h93v-59z" />
    <glyph glyph-name="Egrave" unicode="&#xc8;" horiz-adv-x="467" 
d="M433 265h-299v-232h298v-33h-393v800h394v-35h-299v-465h299v-35zM297 855h-72l-123 181h103z" />
    <glyph glyph-name="Eacute" unicode="&#xc9;" horiz-adv-x="467" 
d="M433 265h-299v-232h298v-33h-393v800h394v-35h-299v-465h299v-35zM397 1036l-123 -181h-72l92 181h103z" />
    <glyph glyph-name="Ecircumflex" unicode="&#xca;" horiz-adv-x="467" 
d="M433 265h-299v-232h298v-33h-393v800h394v-35h-299v-465h299v-35zM381 841h-71l-62 58l-61 -58h-71l93 117h78z" />
    <glyph glyph-name="Edieresis" unicode="&#xcb;" horiz-adv-x="467" 
d="M433 265h-299v-232h298v-33h-393v800h394v-35h-299v-465h299v-35zM379 920q0 -22 -16 -38t-38 -16t-38 16t-16 38t16 38t38 16t38 -16t16 -38zM223 920q0 -22 -16 -38t-38 -16q-21 0 -37.5 16t-16.5 38t16.5 38t37.5 16q22 0 38 -16t16 -38z" />
    <glyph glyph-name="Igrave" unicode="&#xcc;" horiz-adv-x="205" 
d="M145 0h-95v800h95v-800zM142 855h-72l-123 181h103z" />
    <glyph glyph-name="Iacute" unicode="&#xcd;" horiz-adv-x="205" 
d="M145 0h-95v800h95v-800zM264 1036l-123 -181h-72l92 181h103z" />
    <glyph glyph-name="Icircumflex" unicode="&#xce;" horiz-adv-x="205" 
d="M145 0h-95v800h95v-800zM238 841h-71l-62 58l-61 -58h-71l93 117h78z" />
    <glyph glyph-name="Idieresis" unicode="&#xcf;" horiz-adv-x="205" 
d="M145 0h-95v800h95v-800zM238 920q0 -22 -16 -38t-38 -16t-38 16t-16 38t16 38t38 16t38 -16t16 -38zM82 920q0 -22 -16 -38t-38 -16t-38 16t-16 38t16 38t38 16t38 -16t16 -38z" />
    <glyph glyph-name="Eth" unicode="&#xd0;" horiz-adv-x="551" 
d="M508 137q0 -60 -40 -97q-43 -40 -121 -40h-284v378h-58v34h58v388h265q180 0 180 -140v-523zM414 134v514q0 117 -76 117h-180v-353h158v-34h-158v-346h190q66 0 66 102z" />
    <glyph glyph-name="Ntilde" unicode="&#xd1;" 
d="M485 0h-96v591q0 74 -34 123q-36 53 -100 53h-125l1 -767h-97v800h224q106 0 166.5 -58t60.5 -155v-587zM448 971q-29 -37 -59 -74q-38 -42 -80 -42q-31 0 -83.5 34.5t-75.5 34.5t-44 -23l-34 -40l-30 12q52 71 59 78q39 40 83 40q31 0 83 -33.5t72 -33.5q33 0 79 59z
" />
    <glyph glyph-name="Ograve" unicode="&#xd2;" horiz-adv-x="520" 
d="M484 178q0 -80 -65 -137t-158 -57t-158 55t-65 134v449q0 80 65.5 137t158.5 57t157.5 -55t64.5 -135v-448zM389 177v445q0 66 -37 112t-90 46t-90.5 -46t-37.5 -112v-445q0 -65 37 -111.5t90 -46.5t90.5 46.5t37.5 111.5zM328 855h-72l-123 181h103z" />
    <glyph glyph-name="Oacute" unicode="&#xd3;" horiz-adv-x="520" 
d="M484 178q0 -80 -65 -137t-158 -57t-158 55t-65 134v449q0 80 65.5 137t158.5 57t157.5 -55t64.5 -135v-448zM389 177v445q0 66 -37 112t-90 46t-90.5 -46t-37.5 -112v-445q0 -65 37 -111.5t90 -46.5t90.5 46.5t37.5 111.5zM419 1036l-123 -181h-72l92 181h103z" />
    <glyph glyph-name="Ocircumflex" unicode="&#xd4;" horiz-adv-x="520" 
d="M484 178q0 -80 -65 -137t-158 -57t-158 55t-65 134v449q0 80 65.5 137t158.5 57t157.5 -55t64.5 -135v-448zM389 177v445q0 66 -37 112t-90 46t-90.5 -46t-37.5 -112v-445q0 -65 37 -111.5t90 -46.5t90.5 46.5t37.5 111.5zM397 841h-71l-62 58l-61 -58h-71l93 117h78z
" />
    <glyph glyph-name="Otilde" unicode="&#xd5;" horiz-adv-x="520" 
d="M484 178q0 -80 -65 -137t-158 -57t-158 55t-65 134v449q0 80 65.5 137t158.5 57t157.5 -55t64.5 -135v-448zM389 177v445q0 66 -37 112t-90 46t-90.5 -46t-37.5 -112v-445q0 -65 37 -111.5t90 -46.5t90.5 46.5t37.5 111.5zM467 986q-29 -37 -59 -74q-38 -42 -80 -42
q-31 0 -83.5 34.5t-76.5 34.5q-23 0 -44 -23q-17 -20 -33 -40l-31 12q53 71 60 78q39 40 83 40q31 0 83 -33.5t72 -33.5q32 0 79 59z" />
    <glyph glyph-name="Odieresis" unicode="&#xd6;" horiz-adv-x="520" 
d="M484 178q0 -80 -65 -137t-158 -57t-158 55t-65 134v449q0 80 65.5 137t158.5 57t157.5 -55t64.5 -135v-448zM389 177v445q0 66 -37 112t-90 46t-90.5 -46t-37.5 -112v-445q0 -65 37 -111.5t90 -46.5t90.5 46.5t37.5 111.5zM392 920q0 -22 -16 -38t-38 -16t-38 16t-16 38
t16 38t38 16t38 -16t16 -38zM236 920q0 -22 -16 -38t-38 -16q-21 0 -37.5 16t-16.5 38t16.5 38t37.5 16q22 0 38 -16t16 -38z" />
    <glyph glyph-name="Oslash" unicode="&#xd8;" horiz-adv-x="520" 
d="M508 800l-46 -82q27 -42 27 -92v-448q0 -80 -65 -137t-158 -57q-108 0 -174 70l-30 -54h-47l50 90q-22 39 -22 83v449q0 80 65.5 137t158.5 57q102 0 167 -64l27 48h47zM388 670q-12 49 -45 79.5t-76 30.5q-53 0 -90.5 -46t-37.5 -112v-399zM394 177v419l-252 -453
q9 -54 43.5 -89t80.5 -35q53 0 90.5 46.5t37.5 111.5z" />
    <glyph glyph-name="Ugrave" unicode="&#xd9;" 
d="M478 176q0 -80 -65.5 -136.5t-158.5 -56.5q-92 0 -157.5 57t-65.5 137v622h95v-622q0 -66 37.5 -112.5t90.5 -46.5t91 46.5t38 112.5v622h95v-623zM328 855h-72l-123 181h103z" />
    <glyph glyph-name="Uacute" unicode="&#xda;" 
d="M478 176q0 -80 -65.5 -136.5t-158.5 -56.5q-92 0 -157.5 57t-65.5 137v622h95v-622q0 -66 37.5 -112.5t90.5 -46.5t91 46.5t38 112.5v622h95v-623zM416 1036l-123 -181h-72l92 181h103z" />
    <glyph glyph-name="Ucircumflex" unicode="&#xdb;" 
d="M478 176q0 -80 -65.5 -136.5t-158.5 -56.5q-92 0 -157.5 57t-65.5 137v622h95v-622q0 -66 37.5 -112.5t90.5 -46.5t91 46.5t38 112.5v622h95v-623zM393 841h-71l-62 58l-61 -58h-71l93 117h78z" />
    <glyph glyph-name="Udieresis" unicode="&#xdc;" 
d="M478 176q0 -80 -65.5 -136.5t-158.5 -56.5q-92 0 -157.5 57t-65.5 137v622h95v-622q0 -66 37.5 -112.5t90.5 -46.5t91 46.5t38 112.5v622h95v-623zM389 920q0 -22 -16 -38t-38 -16t-38 16t-16 38t16 38t38 16t38 -16t16 -38zM233 920q0 -22 -16 -38t-38 -16
q-21 0 -37.5 16t-16.5 38t16.5 38t37.5 16q22 0 38 -16t16 -38z" />
    <glyph glyph-name="Yacute" unicode="&#xdd;" horiz-adv-x="512" 
d="M414 1021l-123 -181h-72l92 181h103zM481 464q0 -86 -55 -141q-49 -47 -125 -57v-266h-94v267q-72 12 -120 62q-53 56 -53 136v334h97v-346q0 -67 40 -112q37 -42 85 -42q52 0 90.5 43t38.5 111v346h96v-335z" />
    <glyph glyph-name="Thorn" unicode="&#xde;" horiz-adv-x="498" 
d="M472 272q0 -60 -39.5 -100.5t-100.5 -40.5h-194v-131h-93v799h93v-132h188q146 0 146 -117v-278zM375 258v279q0 98 -61 98h-176v-467h176q26 0 43.5 28t17.5 62z" />
    <glyph glyph-name="germandbls" unicode="&#xdf;" horiz-adv-x="433" 
d="M402 132q0 -54 -35 -91q-39 -41 -106 -41h-81v34h62q63 0 63 78v143q0 19 -13.5 36t-36.5 17h-75v39h98q31 0 31 67v291q0 61 -51 61h-75q-20 0 -34 -18.5t-14 -44.5v-943h-94v548h-34v39h34v342q0 54 40 84q37 27 96 27h87q73 0 105.5 -26t32.5 -86v-265q0 -82 -75 -92
q34 -4 54.5 -25.5t20.5 -51.5v-122z" />
    <glyph glyph-name="agrave" unicode="&#xe0;" horiz-adv-x="503" 
d="M469 0h-95v17q-56 -33 -129 -33q-102 0 -163.5 54t-61.5 140q0 88 65 146t161 58q78 0 128 -32v107q0 65 -38 111.5t-91 46.5q-52 0 -90 -46.5t-38 -111.5v-39h-95v39q0 80 65.5 136.5t157.5 56.5q95 0 159.5 -55.5t64.5 -137.5v-457zM373 189q0 65 -37 111.5t-90 46.5
q-58 0 -93.5 -49t-35.5 -121q0 -65 37.5 -111.5t90.5 -46.5q58 0 93 49t35 121zM328 692h-72l-123 181h103z" />
    <glyph glyph-name="aacute" unicode="&#xe1;" horiz-adv-x="503" 
d="M469 0h-95v17q-56 -33 -129 -33q-102 0 -163.5 54t-61.5 140q0 88 65 146t161 58q78 0 128 -32v107q0 65 -38 111.5t-91 46.5q-52 0 -90 -46.5t-38 -111.5v-39h-95v39q0 80 65.5 136.5t157.5 56.5q95 0 159.5 -55.5t64.5 -137.5v-457zM373 189q0 65 -37 111.5t-90 46.5
q-58 0 -93.5 -49t-35.5 -121q0 -65 37.5 -111.5t90.5 -46.5q58 0 93 49t35 121zM407 875l-123 -181h-72l92 181h103z" />
    <glyph glyph-name="acircumflex" unicode="&#xe2;" horiz-adv-x="503" 
d="M469 0h-95v17q-56 -33 -129 -33q-102 0 -163.5 54t-61.5 140q0 88 65 146t161 58q78 0 128 -32v107q0 65 -38 111.5t-91 46.5q-52 0 -90 -46.5t-38 -111.5v-39h-95v39q0 80 65.5 136.5t157.5 56.5q95 0 159.5 -55.5t64.5 -137.5v-457zM373 189q0 65 -37 111.5t-90 46.5
q-58 0 -93.5 -49t-35.5 -121q0 -65 37.5 -111.5t90.5 -46.5q58 0 93 49t35 121zM393 698h-71l-62 58l-61 -58h-71l93 117h78z" />
    <glyph glyph-name="atilde" unicode="&#xe3;" horiz-adv-x="498" 
d="M469 0h-95v17q-56 -33 -129 -33q-102 0 -163.5 54t-61.5 140q0 88 65 146t161 58q78 0 128 -32v107q0 65 -38 111.5t-91 46.5q-52 0 -90 -46.5t-38 -111.5v-39h-95v39q0 80 65.5 136.5t157.5 56.5q95 0 159.5 -55.5t64.5 -137.5v-457zM373 189q0 65 -37 111.5t-90 46.5
q-58 0 -93.5 -49t-35.5 -121q0 -65 37.5 -111.5t90.5 -46.5q58 0 93 49t35 121zM466 809q-29 -37 -59 -75q-38 -41 -80 -41q-31 0 -83.5 34t-76.5 34q-22 0 -44 -22q-16 -20 -33 -40l-30 12q52 70 59 77q39 41 83 41q31 0 83 -34t72 -34q32 0 79 60z" />
    <glyph glyph-name="adieresis" unicode="&#xe4;" horiz-adv-x="498" 
d="M469 0h-95v17q-56 -33 -129 -33q-102 0 -163.5 54t-61.5 140q0 88 65 146t161 58q78 0 128 -32v107q0 65 -38 111.5t-91 46.5q-52 0 -90 -46.5t-38 -111.5v-39h-95v39q0 80 65.5 136.5t157.5 56.5q95 0 159.5 -55.5t64.5 -137.5v-457zM373 189q0 65 -37 111.5t-90 46.5
q-58 0 -93.5 -49t-35.5 -121q0 -65 37.5 -111.5t90.5 -46.5q58 0 93 49t35 121zM388 745q0 -22 -16 -38t-38 -16t-38 16t-16 38t16 38t38 16t38 -16t16 -38zM232 745q0 -22 -16 -38t-38 -16q-21 0 -37.5 16t-16.5 38t16.5 38t37.5 16q22 0 38 -16t16 -38z" />
    <glyph glyph-name="aring" unicode="&#xe5;" horiz-adv-x="503" 
d="M469 0h-95v17q-56 -33 -129 -33q-102 0 -163.5 54t-61.5 140q0 88 65 146t161 58q78 0 128 -32v107q0 65 -38 111.5t-91 46.5q-52 0 -90 -46.5t-38 -111.5v-39h-95v39q0 80 65.5 136.5t157.5 56.5q95 0 159.5 -55.5t64.5 -137.5v-457zM373 189q0 65 -37 111.5t-90 46.5
q-58 0 -93.5 -49t-35.5 -121q0 -65 37.5 -111.5t90.5 -46.5q58 0 93 49t35 121zM373 783q0 -41 -33.5 -70.5t-82.5 -29.5q-48 0 -81 29t-33 71t33 71t81 29q49 0 82.5 -29t33.5 -71zM324 783q0 30 -19 50.5t-47 20.5t-47 -20.5t-19 -50.5t18.5 -50.5t47.5 -20.5
q27 0 46.5 21t19.5 50z" />
    <glyph glyph-name="ae" unicode="&#xe6;" horiz-adv-x="859" 
d="M834 169q0 -75 -65 -130t-155 -55q-77 0 -130 32v-16h-95v17q-57 -33 -129 -33q-102 0 -163.5 54t-61.5 140q0 88 65 146t161 58q77 0 129 -31v102q0 68 -37 115t-93 47q-53 0 -90.5 -46.5t-37.5 -111.5v-39h-95v39q0 80 65.5 136.5t157.5 56.5q107 0 176 -69
q62 69 178 69q90 0 155 -55t65 -130v-162h-350v-119q0 -75 40 -122q37 -45 88 -45q53 0 91 46t38 121v44h93v-59zM741 339v111q0 75 -38 121t-91 46q-51 0 -88 -44q-40 -48 -40 -123v-111h257zM388 189q0 65 -37.5 111.5t-89.5 46.5q-58 0 -93.5 -49t-35.5 -121
q0 -65 37.5 -111.5t90.5 -46.5q58 0 93 49t35 121z" />
    <glyph glyph-name="ccedilla" unicode="&#xe7;" horiz-adv-x="502" 
d="M477 169q0 -65 -50.5 -116.5t-125.5 -64.5v-66q49 -4 82 -23q39 -22 39 -56q0 -79 -154 -79q-60 0 -128 31v40q78 -45 129 -45q65 0 65 53q0 23 -24 40q-22 14 -45 14q-17 0 -57 -4v96q-74 13 -122 60q-53 53 -53 131v273q0 93 72 148q64 49 153 49t154 -55t65 -130v-59
h-93v44q0 75 -38.5 121t-90.5 46q-51 0 -88 -44q-40 -48 -40 -123v-266q0 -75 40 -122q37 -45 88 -45q53 0 91 46t38 121v44h93v-59z" />
    <glyph glyph-name="egrave" unicode="&#xe8;" horiz-adv-x="507" 
d="M474 169q0 -75 -64.5 -130t-154.5 -55q-89 0 -153 49q-72 55 -72 147v273q0 93 72 148q64 49 153 49q90 0 154.5 -55t64.5 -130v-162h-350v-119q0 -75 40 -122q37 -45 88 -45q53 0 91 46t38 121v44h93v-59zM381 339v111q0 75 -38 121t-91 46q-51 0 -88 -44
q-40 -48 -40 -123v-111h257zM328 692h-72l-123 181h103z" />
    <glyph glyph-name="eacute" unicode="&#xe9;" horiz-adv-x="507" 
d="M474 169q0 -75 -64.5 -130t-154.5 -55q-89 0 -153 49q-72 55 -72 147v273q0 93 72 148q64 49 153 49q90 0 154.5 -55t64.5 -130v-162h-350v-119q0 -75 40 -122q37 -45 88 -45q53 0 91 46t38 121v44h93v-59zM381 339v111q0 75 -38 121t-91 46q-51 0 -88 -44
q-40 -48 -40 -123v-111h257zM407 875l-123 -181h-72l92 181h103z" />
    <glyph glyph-name="ecircumflex" unicode="&#xea;" horiz-adv-x="507" 
d="M474 169q0 -75 -64.5 -130t-154.5 -55q-89 0 -153 49q-72 55 -72 147v273q0 93 72 148q64 49 153 49q90 0 154.5 -55t64.5 -130v-162h-350v-119q0 -75 40 -122q37 -45 88 -45q53 0 91 46t38 121v44h93v-59zM381 339v111q0 75 -38 121t-91 46q-51 0 -88 -44
q-40 -48 -40 -123v-111h257zM393 698h-71l-62 58l-61 -58h-71l93 117h78z" />
    <glyph glyph-name="edieresis" unicode="&#xeb;" horiz-adv-x="507" 
d="M474 169q0 -75 -64.5 -130t-154.5 -55q-89 0 -153 49q-72 55 -72 147v273q0 93 72 148q64 49 153 49q90 0 154.5 -55t64.5 -130v-162h-350v-119q0 -75 40 -122q37 -45 88 -45q53 0 91 46t38 121v44h93v-59zM381 339v111q0 75 -38 121t-91 46q-51 0 -88 -44
q-40 -48 -40 -123v-111h257zM388 745q0 -22 -16 -38t-38 -16t-38 16t-16 38t16 38t38 16t38 -16t16 -38zM232 745q0 -22 -16 -38t-38 -16q-21 0 -37.5 16t-16.5 38t16.5 38t37.5 16q22 0 38 -16t16 -38z" />
    <glyph glyph-name="igrave" unicode="&#xec;" horiz-adv-x="200" 
d="M143 0h-94v635h94v-635zM138 692h-72l-123 181h103z" />
    <glyph glyph-name="iacute" unicode="&#xed;" horiz-adv-x="200" 
d="M143 0h-94v635h94v-635zM264 875l-123 -181h-72l92 181h103z" />
    <glyph glyph-name="icircumflex" unicode="&#xee;" horiz-adv-x="200" 
d="M143 0h-94v635h94v-635zM242 698h-71l-62 58l-61 -58h-71l93 117h78z" />
    <glyph glyph-name="idieresis" unicode="&#xef;" horiz-adv-x="200" 
d="M143 0h-94v635h94v-635zM240 745q0 -22 -16 -38t-38 -16q-21 0 -37.5 16t-16.5 38t16.5 38t37.5 16q22 0 38 -16t16 -38zM85 745q0 -22 -16.5 -38t-37.5 -16q-22 0 -38 16t-16 38t16 38t38 16q21 0 37.5 -16t16.5 -38z" />
    <glyph glyph-name="eth" unicode="&#xf0;" horiz-adv-x="519" 
d="M482 178q0 -80 -65 -137t-158 -57t-158 55t-65 134v282q0 78 62 134t151 60h-8l-63 44l-35 -53l-59 44l32 47l-57 45v65l90 -60l36 53l60 -43l-33 -47q-1 1 -3 1v0q0 -4 157 -112q61 -41 86 -78q30 -41 30 -95v-282zM387 177v278q0 66 -37 112.5t-90 46.5t-90.5 -46.5
t-37.5 -112.5v-278q0 -65 37 -111.5t90 -46.5t90.5 46.5t37.5 111.5z" />
    <glyph glyph-name="ntilde" unicode="&#xf1;" horiz-adv-x="505" 
d="M474 -1h-95v460q0 65 -38 111.5t-91 46.5t-90.5 -46.5t-37.5 -111.5v-460h-95v460q0 80 65.5 136.5t157.5 56.5q93 0 158.5 -56.5t65.5 -136.5v-460zM456 807q-29 -37 -59 -74q-38 -42 -80 -42q-31 0 -83.5 34.5t-76.5 34.5q-22 0 -44 -23q-16 -20 -33 -40l-30 12
q52 71 59 77q39 41 83 41q31 0 83 -33.5t72 -33.5q32 0 79 59z" />
    <glyph glyph-name="ograve" unicode="&#xf2;" horiz-adv-x="509" 
d="M477 178q0 -80 -65 -137t-158 -57t-158 55t-65 134v282q0 80 65.5 137t158.5 57t157.5 -55t64.5 -134v-282zM382 177v278q0 66 -37 112.5t-90 46.5t-90.5 -46.5t-37.5 -112.5v-278q0 -65 37 -111.5t90 -46.5t90.5 46.5t37.5 111.5zM328 692h-72l-123 181h103z" />
    <glyph glyph-name="oacute" unicode="&#xf3;" horiz-adv-x="509" 
d="M477 178q0 -80 -65 -137t-158 -57t-158 55t-65 134v282q0 80 65.5 137t158.5 57t157.5 -55t64.5 -134v-282zM382 177v278q0 66 -37 112.5t-90 46.5t-90.5 -46.5t-37.5 -112.5v-278q0 -65 37 -111.5t90 -46.5t90.5 46.5t37.5 111.5zM407 875l-123 -181h-72l92 181h103z
" />
    <glyph glyph-name="ocircumflex" unicode="&#xf4;" horiz-adv-x="509" 
d="M477 178q0 -80 -65 -137t-158 -57t-158 55t-65 134v282q0 80 65.5 137t158.5 57t157.5 -55t64.5 -134v-282zM382 177v278q0 66 -37 112.5t-90 46.5t-90.5 -46.5t-37.5 -112.5v-278q0 -65 37 -111.5t90 -46.5t90.5 46.5t37.5 111.5zM393 698h-71l-62 58l-61 -58h-71
l93 117h78z" />
    <glyph glyph-name="otilde" unicode="&#xf5;" horiz-adv-x="509" 
d="M477 178q0 -80 -65 -137t-158 -57t-158 55t-65 134v282q0 80 65.5 137t158.5 57t157.5 -55t64.5 -134v-282zM382 177v278q0 66 -37 112.5t-90 46.5t-90.5 -46.5t-37.5 -112.5v-278q0 -65 37 -111.5t90 -46.5t90.5 46.5t37.5 111.5zM457 806l-58 -74q-39 -41 -81 -41
q-31 0 -83.5 34t-75.5 34t-44 -23l-34 -40l-30 13q52 70 59 77q39 40 83 40q31 0 83 -33.5t72 -33.5q33 0 79 60z" />
    <glyph glyph-name="odieresis" unicode="&#xf6;" horiz-adv-x="509" 
d="M477 178q0 -80 -65 -137t-158 -57t-158 55t-65 134v282q0 80 65.5 137t158.5 57t157.5 -55t64.5 -134v-282zM382 177v278q0 66 -37 112.5t-90 46.5t-90.5 -46.5t-37.5 -112.5v-278q0 -65 37 -111.5t90 -46.5t90.5 46.5t37.5 111.5zM392 745q0 -22 -16 -38t-38 -16t-38 16
t-16 38t16 38t38 16t38 -16t16 -38zM236 745q0 -22 -16 -38t-38 -16q-21 0 -37.5 16t-16.5 38t16.5 38t37.5 16q22 0 38 -16t16 -38z" />
    <glyph glyph-name="oslash" unicode="&#xf8;" horiz-adv-x="509" 
d="M496 635l-49 -72q35 -46 35 -103v-282q0 -80 -65 -137t-158 -57q-100 0 -166 62l-31 -46h-47l52 76q-31 44 -31 97v282q0 80 65.5 137t158.5 57q95 0 160 -57l29 43h47zM374 525q-34 89 -114 89q-53 0 -90.5 -46.5t-37.5 -112.5v-284zM387 177v278q0 10 -1 19l-244 -358
q14 -43 46 -70t71 -27q53 0 90.5 46.5t37.5 111.5z" />
    <glyph glyph-name="ugrave" unicode="&#xf9;" 
d="M478 176q0 -80 -65.5 -136.5t-157.5 -56.5q-93 0 -158.5 57t-65.5 137v457h95v-457q0 -66 38 -112.5t91 -46.5t90.5 46.5t37.5 112.5v457h95v-458zM328 692h-72l-123 181h103z" />
    <glyph glyph-name="uacute" unicode="&#xfa;" 
d="M478 176q0 -80 -65.5 -136.5t-157.5 -56.5q-93 0 -158.5 57t-65.5 137v457h95v-457q0 -66 38 -112.5t91 -46.5t90.5 46.5t37.5 112.5v457h95v-458zM427 875l-123 -181h-72l92 181h103z" />
    <glyph glyph-name="ucircumflex" unicode="&#xfb;" 
d="M478 176q0 -80 -65.5 -136.5t-157.5 -56.5q-93 0 -158.5 57t-65.5 137v457h95v-457q0 -66 38 -112.5t91 -46.5t90.5 46.5t37.5 112.5v457h95v-458zM396 698h-71l-62 58l-61 -58h-71l93 117h78z" />
    <glyph glyph-name="udieresis" unicode="&#xfc;" 
d="M478 176q0 -80 -65.5 -136.5t-157.5 -56.5q-93 0 -158.5 57t-65.5 137v457h95v-457q0 -66 38 -112.5t91 -46.5t90.5 46.5t37.5 112.5v457h95v-458zM397 745q0 -22 -16 -38t-38 -16t-38 16t-16 38t16 38t38 16t38 -16t16 -38zM241 745q0 -22 -16 -38t-38 -16
q-21 0 -37.5 16t-16.5 38t16.5 38t37.5 16q22 0 38 -16t16 -38z" />
    <glyph glyph-name="yacute" unicode="&#xfd;" 
d="M400 868l-123 -181h-72l92 181h103zM484 -92q0 -81 -64 -137t-160 -56q-92 0 -157.5 56.5t-65.5 136.5v33h95v-33q0 -65 37.5 -111.5t90.5 -46.5t91 46.5t38 111.5v106q-53 -31 -128 -31q-93 0 -158.5 57t-65.5 137v458h96v-459q0 -65 37.5 -111.5t90.5 -46.5t90 46.5
t37 111.5v458h96v-726z" />
    <glyph glyph-name="thorn" unicode="&#xfe;" horiz-adv-x="500" 
d="M491 173q0 -80 -65 -134.5t-158 -54.5q-74 0 -128 32v-301h-95v1083h95v-179q54 30 127 30q93 0 158.5 -57t65.5 -137v-282zM395 177v278q0 66 -37.5 112.5t-90.5 46.5q-51 0 -89 -42.5t-38 -103.5v-303q0 -61 38.5 -103.5t89.5 -42.5q53 0 90 46.5t37 111.5z" />
    <glyph glyph-name="ydieresis" unicode="&#xff;" 
d="M479 -92q0 -81 -64 -137t-160 -56q-92 0 -157.5 56.5t-65.5 136.5v33h95v-33q0 -65 37.5 -111.5t90.5 -46.5t91 46.5t38 111.5v106q-53 -31 -128 -31q-93 0 -158.5 57t-65.5 137v458h96v-459q0 -65 37.5 -111.5t90.5 -46.5t90 46.5t37 111.5v458h96v-726zM397 745
q0 -22 -16 -38t-38 -16t-38 16t-16 38t16 38t38 16t38 -16t16 -38zM241 745q0 -22 -16 -38t-38 -16q-21 0 -37.5 16t-16.5 38t16.5 38t37.5 16q22 0 38 -16t16 -38z" />
    <glyph glyph-name="dotlessi" unicode="&#x131;" horiz-adv-x="200" 
d="M148 0h-94v635h94v-635z" />
    <glyph glyph-name="Lslash" unicode="&#x141;" horiz-adv-x="467" 
d="M440 0h-393v312l-63 -83v110l63 89v372h95v-257l95 121v-115l-95 -124v-391h298v-34z" />
    <glyph glyph-name="lslash" unicode="&#x142;" horiz-adv-x="205" 
d="M232 549l-88 -113v-436h-89v323l-76 -97v114l76 105v355h89v-250l88 114v-115z" />
    <glyph glyph-name="OE" unicode="&#x152;" horiz-adv-x="818" 
d="M789 265h-299v-232h298v-33h-393v17q-52 -33 -129 -33q-93 0 -158 55t-65 134v449q0 80 65.5 137t158.5 57q74 0 128 -32v16h394v-35h-299v-465h299v-35zM394 177v445q0 66 -37 112t-90 46t-90.5 -46t-37.5 -112v-445q0 -65 37 -111.5t90 -46.5t90.5 46.5t37.5 111.5z
" />
    <glyph glyph-name="oe" unicode="&#x153;" horiz-adv-x="855" 
d="M830 169q0 -75 -65 -130t-154 -55q-116 0 -179 70q-68 -70 -173 -70q-93 0 -158 55t-65 134v282q0 80 65.5 137t158.5 57q110 0 173 -68q67 69 178 69q89 0 154 -55t65 -130v-162h-350v-131q0 -69 41 -114q37 -41 87 -41q53 0 91 46t38 121v44h93v-59zM737 339v111
q0 75 -38 121t-91 46q-54 0 -91 -45.5t-37 -111.5v-121h257zM386 180v273q0 68 -35.5 114.5t-90.5 46.5q-53 0 -90.5 -46.5t-37.5 -112.5v-278q0 -65 37 -111.5t90 -46.5q55 0 91 46.5t36 114.5z" />
    <glyph glyph-name="Scaron" unicode="&#x160;" horiz-adv-x="629" 
d="M392 966l-94 -117h-77l-94 117h70l62 -58q20 20 61 58h72zM455 636h-94v18q0 131 -104 131q-45 0 -76.5 -37t-31.5 -94q0 -53 21 -81l238 -323q43 -58 43 -108q0 -69 -60 -115.5t-147 -46.5q-92 0 -150 47.5t-58 121.5v21h94v-18q0 -60 31 -99q32 -43 86 -43
q45 0 76.5 37t31.5 94q0 52 -22 82l-237 322q-42 57 -42 108q0 72 58 117t144 45q90 0 144.5 -41.5t54.5 -116.5v-21z" />
    <glyph glyph-name="scaron" unicode="&#x161;" horiz-adv-x="474" 
d="M384 806l-94 -117h-77l-94 117h70l62 -58q20 20 61 58h72zM447 471h-94v18q0 131 -104 131q-45 0 -76.5 -37t-31.5 -94q0 -72 48 -104l164 -110q90 -61 90 -133q0 -69 -60 -115.5t-147 -46.5q-92 0 -150 47.5t-58 121.5v21h94v-18q0 -60 31 -99q32 -43 86 -43
q45 0 76.5 37t31.5 94q0 68 -80 129l-138 88q-83 56 -83 130q0 72 58 117t144 45q90 0 144.5 -41.5t54.5 -115.5v-22z" />
    <glyph glyph-name="Ydieresis" unicode="&#x178;" horiz-adv-x="512" 
d="M474 464q0 -86 -56 -140q-48 -48 -123 -58v-266h-94v267q-72 12 -120 62q-53 56 -53 136v334h97v-346q0 -67 40 -112q37 -42 85 -42q52 0 90.5 43t38.5 111v346h95v-335zM388 909q0 -21 -16 -37.5t-38 -16.5t-38 16.5t-16 37.5q0 22 16 38.5t38 16.5t38 -16.5t16 -38.5z
M232 909q0 -21 -16 -37.5t-38 -16.5q-21 0 -37.5 16.5t-16.5 37.5q0 22 16.5 38.5t37.5 16.5q22 0 38 -16.5t16 -38.5z" />
    <glyph glyph-name="Zcaron" unicode="&#x17d;" horiz-adv-x="510" 
d="M400 961l-94 -117h-77l-94 117h70l62 -58q20 20 61 58h72zM485 0h-439v27l339 740h-339v33h439v-26l-338 -740h338v-34z" />
    <glyph glyph-name="zcaron" unicode="&#x17e;" horiz-adv-x="510" 
d="M403 806l-94 -117h-77l-94 117h70l62 -58q20 20 61 58h72zM477 0h-439v27l340 576h-340v33h439v-26l-339 -576h339v-34z" />
    <glyph glyph-name="circumflex" unicode="&#x2c6;" horiz-adv-x="322" 
d="M289 841h-71l-62 58l-61 -58h-71l93 117h78z" />
    <glyph glyph-name="caron" unicode="&#x2c7;" horiz-adv-x="322" 
d="M293 937l-93 -117h-78l-94 117h71l62 -58l61 58h71z" />
    <glyph glyph-name="breve" unicode="&#x2d8;" horiz-adv-x="461" 
d="M413 1010q-11 -151 -183 -151q-174 0 -184 151h80q4 -44 26 -76q28 -41 77 -41q52 0 80 41q22 32 24 76h80z" />
    <glyph glyph-name="dotaccent" unicode="&#x2d9;" horiz-adv-x="222" 
d="M162 978q0 -22 -16 -38t-38 -16t-38 16t-16 38t16 38t38 16t38 -16t16 -38z" />
    <glyph glyph-name="ring" unicode="&#x2da;" horiz-adv-x="416" 
d="M322 927q0 -41 -34 -70.5t-82 -29.5t-81 29t-33 71t33 71t81 29t82 -29t34 -71zM272 927q0 30 -19 50.5t-47 20.5q-27 0 -46.5 -20.5t-19.5 -50.5t19 -50.5t47 -20.5t47 21t19 50z" />
    <glyph glyph-name="ogonek" unicode="&#x2db;" horiz-adv-x="402" 
d="M322 -179l-1 -38q-51 -12 -85 -12q-59 0 -102 24q-49 27 -49 73q0 62 108 132h52q-54 -50 -54 -114q0 -37 21 -57q18 -17 44 -17q12 0 66 9z" />
    <glyph glyph-name="tilde" unicode="&#x2dc;" horiz-adv-x="459" 
d="M436 1015q-29 -37 -59 -74q-38 -41 -80 -41q-31 0 -83.5 34t-75.5 34t-44 -23l-34 -40l-30 12q52 71 59 78q39 40 83 40q31 0 83 -33.5t72 -33.5q33 0 79 60z" />
    <glyph glyph-name="hungarumlaut" unicode="&#x2dd;" horiz-adv-x="397" 
d="M373 1036l-123 -181h-72l92 181h103zM246 1036l-123 -181h-72l92 181h103z" />
    <glyph glyph-name="endash" unicode="&#x2013;" horiz-adv-x="574" 
d="M496 308q0 -15 -45 -15h-335q-45 0 -45 15v25q0 15 45 15h335q45 0 45 -15v-25z" />
    <glyph glyph-name="emdash" unicode="&#x2014;" horiz-adv-x="885" 
d="M814 308q0 -15 -45 -15h-653q-45 0 -45 15v24q0 15 45 15h653q45 0 45 -15v-24z" />
    <glyph glyph-name="quoteleft" unicode="&#x2018;" horiz-adv-x="191" 
d="M152 674q0 -22 -16 -38t-38 -16q-21 0 -37 14.5t-16 36.5q0 11 4 23l38 117h27l-5 -84q43 -9 43 -53z" />
    <glyph glyph-name="quoteright" unicode="&#x2019;" horiz-adv-x="185" 
d="M152 763q0 -11 -4 -23l-39 -117h-26l5 84q-43 10 -43 53q0 22 16 38t38 16q21 0 37 -14t16 -37z" />
    <glyph glyph-name="quotesinglbase" unicode="&#x201a;" horiz-adv-x="205" 
d="M157 39q0 -11 -3 -22l-39 -117h-26l5 84q-44 9 -44 53q0 21 16 37.5t38 16.5q21 0 37 -14.5t16 -37.5z" />
    <glyph glyph-name="quotedblleft" unicode="&#x201c;" horiz-adv-x="328" 
d="M283 674q0 -22 -16.5 -38t-37.5 -16q-22 0 -37.5 14.5t-15.5 36.5q0 11 3 23l39 117h26l-5 -84q44 -9 44 -53zM155 674q0 -22 -16 -38t-38 -16q-21 0 -37 14.5t-16 36.5q0 11 4 23l38 117h27l-6 -84q44 -9 44 -53z" />
    <glyph glyph-name="quotedblright" unicode="&#x201d;" horiz-adv-x="328" 
d="M279 763q0 -11 -3 -23l-39 -117h-26l5 84q-44 10 -44 53q0 22 16.5 38t37.5 16q22 0 37.5 -14t15.5 -37zM152 763q0 -11 -4 -23l-39 -117h-26l5 84q-43 10 -43 53q0 22 16 38t38 16q21 0 37 -14t16 -37z" />
    <glyph glyph-name="quotedblbase" unicode="&#x201e;" horiz-adv-x="328" 
d="M285 39q0 -11 -4 -22l-38 -117h-27l5 84q-43 9 -43 53q0 21 16 37.5t38 16.5q21 0 37 -14.5t16 -37.5zM157 39q0 -11 -3 -22l-39 -117h-26l5 84q-44 9 -44 53q0 21 16 37.5t38 16.5q21 0 37 -14.5t16 -37.5z" />
    <glyph glyph-name="dagger" unicode="&#x2020;" horiz-adv-x="488" 
d="M407 560h-80q-5 -15 -33 -27v-499h-93v499q-28 12 -33 27h-87v33h89q4 11 31 23v150h93v-150q26 -11 31 -23h82v-33z" />
    <glyph glyph-name="daggerdbl" unicode="&#x2021;" horiz-adv-x="488" 
d="M407 208h-80q-5 -15 -33 -27v-147h-93v147q-28 12 -33 27h-87v33h89q4 11 31 23v269q-28 12 -33 27h-87v33h89q4 11 31 23v150h93v-150q26 -11 31 -23h82v-33h-80q-5 -15 -33 -27v-269q26 -11 31 -23h82v-33z" />
    <glyph glyph-name="bullet" unicode="&#x2022;" horiz-adv-x="606" 
d="M447 372q0 -59 -42.5 -102t-102.5 -43t-102 42.5t-42 102.5t42.5 102t102.5 42q59 0 101.5 -42t42.5 -102z" />
    <glyph glyph-name="ellipsis" unicode="&#x2026;" horiz-adv-x="529" 
d="M474 37q0 -22 -16 -38.5t-38 -16.5t-38 16.5t-16 38.5q0 21 16 37.5t38 16.5t38 -16.5t16 -37.5zM318 37q0 -22 -16 -38.5t-38 -16.5t-38 16.5t-16 38.5q0 21 16 37.5t38 16.5t38 -16.5t16 -37.5zM162 37q0 -22 -16 -38.5t-38 -16.5t-38 16.5t-16 38.5q0 21 16 37.5
t38 16.5t38 -16.5t16 -37.5z" />
    <glyph glyph-name="perthousand" unicode="&#x2030;" horiz-adv-x="1077" 
d="M1028 101q0 -49 -43.5 -80.5t-102.5 -32.5q-61 0 -102 26q-48 30 -48 84v259q0 46 44 80t105 34q63 0 105 -32.5t42 -79.5v-258zM689 369l-1 -274q0 -44 -46.5 -76t-98.5 -32q-62 0 -105 32.5t-43 79.5v269l-203 -363h-82l200 359q-58 -37 -112 -37q-62 0 -105 32.5
t-43 79.5v259q0 46 44 80t105 34q62 0 104.5 -32.5t42.5 -79.5v-271l204 365h82l-201 -360q60 38 113 38q56 0 98 -26q47 -30 47 -77zM944 97v262q0 37 -18 64t-45 27t-46 -27t-19 -64v-262q0 -37 18.5 -63.5t45.5 -26.5t45.5 26.5t18.5 63.5zM607 98v262q0 37 -18 64
t-45 27q-28 0 -46.5 -27t-18.5 -64v-262q0 -37 18.5 -63.5t45.5 -26.5t45.5 26.5t18.5 63.5zM262 438v262q0 37 -18 64t-45 27q-28 0 -46.5 -27t-18.5 -64v-262q0 -37 18.5 -63.5t45.5 -26.5t45.5 26.5t18.5 63.5z" />
    <glyph glyph-name="guilsinglleft" unicode="&#x2039;" horiz-adv-x="399" 
d="M294 223h-1q6 -6 6 -11q0 -13 -25 -13q-24 0 -39 14l-154 144q-8 7 0 15l142 135q17 16 49 16q25 0 25 -10q0 -4 -4 -8h1q-20 -23 -61.5 -70t-62.5 -71q57 -64 124 -141z" />
    <glyph glyph-name="guilsinglright" unicode="&#x203a;" horiz-adv-x="404" 
d="M317 357l-153 -144q-16 -15 -40 -15t-24 14q0 5 5 11h-1q21 24 63 71t62 70l-125 141h1q-5 5 -5 10q0 14 30 14q22 0 34 -11l153 -146q8 -8 0 -15z" />
    <glyph glyph-name="trademark" unicode="&#x2122;" horiz-adv-x="570" 
d="M513 446h-45v284q0 56 -38 56q-39 0 -39 -56v-284h-45v284q0 56 -38 56t-38 -56v-284h-45v284q0 36 23.5 56.5t59.5 20.5q38 0 61 -21q24 21 61 21q35 0 59 -20.5t24 -56.5v-284zM232 780h-76v-334h-46v334h-78v19h200v-19z" />
    <glyph glyph-name="apple" unicode="&#xf000;" horiz-adv-x="1690" 
d="M1661 532q0 -8 -15 -11l-22 -4q-26 -8 -57 -30q-12 -8 -43 -36t-40 -35q-12 -8 -24 -8q-26 0 -26 51q0 1 -1 2q-10 -4 -50.5 -51t-42.5 -47q-3 2 -3 8q0 16 97 112v7q1 4 1 6q0 13 -9 13q-8 0 -43.5 -39t-56.5 -39q-7 0 -15 3q-23 -27 -53 -27q-22 0 -33.5 18t-8.5 37
q-31 -33 -51 -33q-7 0 -14 3q-25 -25 -51 -25q-36 0 -36 49v2q-50 -50 -83 -50q-46 0 -46 50q0 5 1 11q-49 -59 -69 -59q-21 0 -34 22q-11 17 -12 40q15 6 41 29.5t26 37.5q0 3 -4 3q-9 0 -27 -16q-53 -48 -78 -125q-21 8 -21 22q0 12 10 40q-49 -55 -69 -55q-22 0 -22 31
q0 15 3 31q-38 -62 -68 -62q-24 0 -24 31q0 54 41 109q14 19 22 19q7 0 21 -4.5t14 -9.5l-28 -38q-27 -40 -27 -64q0 -6 4 -6q14 0 54.5 59.5t42.5 59.5q8 2 24 -5.5t16 -15.5q-14 -12 -33.5 -43.5t-19.5 -45.5q0 -9 6 -9q8 0 55 51q24 60 55 118q33 62 52 72q6 3 13 3
q24 0 33 -10q6 -5 5 -10q0 -4 -4 -7q-18 -12 -49 -53q-33 -45 -53 -85q42 48 61 48q38 0 38 -44q0 -17 -22 -37t-40 -23q0 -29 12 -29q7 0 27 22q17 20 35 39q26 73 80 73q15 0 27.5 -11t12.5 -27q0 -27 -29 -44.5t-52 -13.5q-4 -13 -4 -22q0 -26 15 -26q28 0 73 48
q10 75 66 152q35 49 64 49t34 -15q1 -5 -6 -10q-56 -36 -89 -104q0 -2 1 -1q10 9 25 9q34 0 34 -37q0 -35 -31 -74q8 -6 30 15q13 13 25 27q11 37 39 65t59 28q17 0 29 -9q16 -11 16 -30q0 -44 -37 -90q2 -2 6 -2q15 0 45 38q17 23 43 44.5t38 21.5q20 0 20 -21q0 -3 -1 -9
v-6.5v-2.5l15 15q56 54 70 54q4 0 11 -6t7 -10h-1q-9 -5 -28 -17q-42 -28 -75 -59q-3 -17 -3 -27q0 -25 10 -25q6 0 65 54.5t96 54.5q18 0 18 -17zM590 907q0 -11 -12 -11h-5q-4 -11 -13.5 -35.5t-74.5 -24.5q-68 -1 -78 26l-12 33h-1q-12 0 -12 11t12 11q13 0 13 -11
q0 -3 -2 -5l18 -12l8 40q-11 2 -11 12q0 11 13 11q12 0 12 -11q0 -7 -6 -10l22 -35l22 66q-9 2 -9 11q0 11 13 11q12 0 12 -11q0 -9 -9 -11l18 -68l23 36q-6 3 -6 10q0 11 12 11q13 0 13 -11t-12 -12l2 -39l26 14q-1 2 -1 4q0 11 13 11q12 0 12 -11zM1498 353l-460 -271
l-472 269l472 -118zM527 525q1 4 0 6q-3 4 -13 -3q-18 -11 -78 -30q-81 -25 -135 -24q-145 4 -145 102q0 76 127 156q124 79 230 76q99 -3 99 -129q0 -155 -124 -353q-83 -132 -198 -229t-195 -97q-30 0 -51 16q-24 17 -24 45q0 75 167 205q62 49 163 104q84 46 120 58
q9 4 18 18q37 57 39 79zM1341 534q0 7 -5 7q-11 0 -23 -26.5t-12 -40.5q0 -12 8 -16q8 9 20 36.5t12 39.5zM1297 445q-16 13 -16 43q0 14 4 30q-1 1 -2 1q-25 -27 -25 -68q0 -20 14 -20q17 0 25 14zM1152 517q0 10 -7 10q-8 0 -13 -17.5t-5 -28.5q0 -19 8 -25q17 25 17 61z
M1126 442q-15 10 -15 36q0 -9 3 25q0 -1 -4 -3q-13 -27 -13 -53q0 -21 12 -21q8 0 17 16zM1044 529q0 11 -9 11q-32 0 -48 -47q16 1 36.5 13t20.5 23zM1437 324l-399 -168v-63zM1038 159v65l-403 104zM553 595q16 51 16 92q0 38 -18 49q-13 8 -34 8q-59 0 -175 -61
q-59 -31 -99 -66.5t-40 -56.5q0 -20 51 -20q59 0 148 20q43 10 82 25q34 14 36 14q8 0 15.5 -7t9.5 -7q4 1 8 10zM424 347q-7 2 -79 -43q-76 -47 -134 -92q-64 -49 -108 -98q-41 -45 -41 -63q0 -8 11 -8q26 0 88.5 41t118.5 94.5t104 109.5t40 59z" />
    <glyph glyph-name="fi" unicode="&#xf001;" horiz-adv-x="680" 
d="M637 745q0 -22 -16 -38t-38 -16t-38 16t-16 38t16 38t38 16t38 -16t16 -38zM628 0h-94v635h94v-635zM491 571h-94v44q0 75 -38 121t-91 46q-54 0 -91.5 -45t-37.5 -121v-316h301v-35h-301v-265h-95v614q0 96 70 151q64 50 157 50q90 0 155 -55t65 -130v-59z" />
    <glyph glyph-name="fl" unicode="&#xf002;" horiz-adv-x="687" 
d="M647 0h-95v800h95v-800zM491 571h-94v44q0 75 -38 121t-91 46q-54 0 -91.5 -45t-37.5 -121v-316h301v-35h-301v-265h-95v614q0 96 70 151q64 50 157 50q90 0 155 -55t65 -130v-59z" />
    </font>
</defs>
</svg>
